<?xml version="1.0" encoding="utf-8"?>
<!-- Generator: Adobe Illustrator 25.4.1, SVG Export Plug-In . SVG Version: 6.00 Build 0)  -->
<svg version="1.1" id="Layer_1" xmlns="http://www.w3.org/2000/svg" xmlns:xlink="http://www.w3.org/1999/xlink" x="0px" y="0px"
	 viewBox="0 0 1000 1000" style="enable-background:new 0 0 1000 1000;" xml:space="preserve">
<style type="text/css">
	.st0{fill:#00FFFF;}
</style>
<path class="st0" d="M491.08,509.05c-3.63-0.29-5.89,1.65-8.35,2.87c-38.68,19.28-77.42,38.44-115.93,58.06
	c-11.28,5.75-21.33,5.26-31.95-1.41c-62.08-38.99-124.28-77.78-186.44-116.64c-1.53-0.95-3.01-1.98-4.54-2.93
	c-9.7-5.95-15.88-13.98-14.49-25.98c1.34-11.58,8.85-17.95,19.15-21.98c36.65-14.34,73.25-28.81,109.88-43.21
	c146.04-57.39,292.07-114.77,438.12-172.13c45.73-17.96,91.52-35.77,137.22-53.78c11.08-4.37,21.14-3.97,29.85,4.88
	c8.74,8.88,8.7,19.12,4.41,30.03c-27.16,68.92-54.32,137.85-81.41,206.79c-62.47,158.96-124.92,317.93-187.29,476.93
	c-4.12,10.51-10.19,18.59-22.13,20.04c-12.33,1.49-20.35-5.05-26.52-14.94c-39.92-63.92-79.89-127.82-119.9-191.69
	c-6.17-9.84-6.46-19.45-1.16-29.9c19.65-38.78,38.98-77.73,58.39-116.63C489.2,514.95,491.01,512.64,491.08,509.05z"/>
<rect x="-224.53" y="111" class="st0" width="80" height="109.41"/>
</svg>
