<?xml version="1.0" encoding="utf-8"?>
<!-- Generator: Adobe Illustrator 25.4.1, SVG Export Plug-In . SVG Version: 6.00 Build 0)  -->
<svg version="1.1" id="Layer_1" xmlns="http://www.w3.org/2000/svg" xmlns:xlink="http://www.w3.org/1999/xlink" x="0px" y="0px"
	 viewBox="0 0 1000 1000" style="enable-background:new 0 0 1000 1000;" xml:space="preserve">
<style type="text/css">
	.st0{fill:#00FFFF;}
</style>
<g>
	<path class="st0" d="M803.57,174.57c7.06,0.87,13.5,2.1,19.34,3.7v-48.13c-8.75-1.53-21.76-2.54-37.53,1.17
		c-18.58,4.37-25.61,14.93-23.29,24.79C764.94,168.21,776.89,171.04,803.57,174.57z"/>
	<path class="st0" d="M803.4,296.43c-21.68,5.1-44.4,4.5-56.49,1.1L747.3,260c12.93,3.2,32.06,4.94,50.36,0.64
		c14.58-3.43,23.02-10.13,25.25-18.41v-9.41c-2.85-11.69-13.46-16.3-38.05-19.09c-34.11-3.57-58.77-16.19-65.26-43.78
		c-5.96-25.35,5.74-49.93,32.58-64.46H644.43v455.59c0,139.73-51.66,205.48-145.6,205.48c-91.59,0-143.25-69.28-143.25-205.48V105.5
		H175.93V547c0,252.45,117.42,362.83,317.03,362.83c206.66,0,329.95-116.25,329.95-360.48V290.28
		C817.02,292.67,810.54,294.75,803.4,296.43z"/>
</g>
<g>
	<g>
		<path class="st0" d="M496.31,426.39c-1.33-0.47-2.68-0.88-3.98-1.41c-6.76-2.76-11.34-7.56-13.27-14.66
			c-0.82-3.02-1.33-6.11-2.07-9.63c15.5,4.17,30.52,4.2,45.55,0.13c-0.66,12.26-5.51,22.12-18.11,25.08
			c-0.27,0.06-0.5,0.32-0.74,0.49C501.23,426.39,498.77,426.39,496.31,426.39z"/>
		<path class="st0" d="M499.74,269.01c-19.97,0-39.95,0.01-59.92,0c-17.78-0.01-29.66-11.86-29.69-29.64
			c-0.03-21.71-0.07-43.43,0.01-65.14c0.11-31.18,20.8-55.99,51.46-61.67c3.5-0.65,7.12-0.86,10.69-0.87
			c18.44-0.08,36.87-0.08,55.31-0.03c34.67,0.1,61.87,26.9,62.22,61.55c0.23,22.43,0.14,44.86,0.02,67.29
			c-0.09,16.45-12.21,28.44-28.64,28.5C540.72,269.07,520.23,269.01,499.74,269.01z M499.91,251.9c0,0.1,0,0.21,0,0.31
			c10.86,0,21.72,0.09,32.57-0.02c21.82-0.21,39.65-13.21,44.48-33.52c1.81-7.63,1.69-15.84,1.62-23.78
			c-0.2-23.93-20.12-43.69-44.08-43.86c-23.05-0.16-46.1-0.15-69.14,0c-20.43,0.14-38.76,14.81-42.69,34.9
			c-1.51,7.73-1.47,15.89-1.2,23.83c0.75,21.86,18.89,40.77,40.66,42C474.68,252.48,487.31,251.9,499.91,251.9z"/>
		<path class="st0" d="M500.11,280.19c14.24,0,28.48-0.01,42.72,0c18.46,0.02,30.13,11.89,30.32,30.43
			c0.13,12.48-0.25,24.9-5.61,36.4c-2.96,6.35-7.03,12.18-10.61,18.24c-0.85,1.43-1.92,1.71-3.61,1.2
			c-26.6-8.13-53.75-9.4-81.14-5.65c-8.47,1.16-16.79,3.54-25.13,5.58c-1.91,0.47-2.98,0.22-4.16-1.28
			c-10-12.73-15.34-27.18-15.93-43.33c-0.2-5.42-0.42-10.91,0.19-16.27c1.72-15.05,13.32-25.16,28.69-25.28
			C470.6,280.1,485.36,280.19,500.11,280.19z M500.32,297.21c-4.5,0-9-0.12-13.5,0.03c-6.04,0.2-10.54,3.12-13.22,8.49
			c-2.74,5.5-2.39,11.08,1.41,15.89c4.37,5.53,9.02,10.87,13.94,15.92c6.03,6.19,16.08,6.19,22.09,0.02
			c4.92-5.05,9.56-10.39,13.94-15.92c3.73-4.7,4.13-10.18,1.56-15.62c-2.63-5.54-7.15-8.58-13.33-8.78
			C508.91,297.09,504.61,297.21,500.32,297.21z"/>
		<path class="st0" d="M453.95,375.88c30.82-7.7,61.31-7.66,92.15-0.03C520.76,398.05,479.41,398.14,453.95,375.88z"/>
		<path class="st0" d="M583.62,330.72c0-11.2,0-22.1,0-33.33c0.01,0,0.66-0.2,1.31-0.2c5.53-0.02,11.06-0.09,16.59,0.01
			c8.56,0.16,15.52,6.46,16.38,14.91c0.29,2.84,0.26,5.74,0.04,8.59c-0.42,5.31-4.58,9.71-10,9.93
			C599.97,330.96,591.99,330.72,583.62,330.72z"/>
		<path class="st0" d="M415.73,330.83c-3.6,0-7.66,0-11.73,0c-3.58,0-7.17,0.1-10.75-0.03c-6.75-0.25-11.24-4.88-11.25-11.66
			c0-3.05-0.06-6.19,0.57-9.15c1.59-7.45,8.03-12.62,15.63-12.78c5.94-0.12,11.88-0.02,17.82,0c0.29,0,0.58,0.15,0.53,0.14
			c-0.28,5.61-0.65,11.08-0.79,16.57C415.63,319.43,415.73,324.94,415.73,330.83z"/>
		<path class="st0" d="M623.6,398.43c-0.06,9.25-7.68,16.79-16.89,16.74c-9.18-0.05-16.81-7.71-16.82-16.89
			c-0.01-9.33,7.68-16.88,17.12-16.81C616.29,381.54,623.66,389.08,623.6,398.43z"/>
		<path class="st0" d="M393.44,381.47c9.22,0.09,16.78,7.78,16.66,16.96c-0.12,9.21-7.81,16.79-16.97,16.73
			c-9.36-0.06-16.83-7.75-16.73-17.2C376.5,388.72,384.08,381.39,393.44,381.47z"/>
		<path class="st0" d="M398.61,180.07c0,14.4,0,28.57,0,42.76c-8.26-0.9-16.06-10.25-16.61-19.68
			C381.37,192.31,388.29,182.55,398.61,180.07z"/>
		<path class="st0" d="M601.37,180.06c10.52,2.66,17.53,12.74,16.59,23.44c-0.83,9.48-8.58,18.58-16.59,19.3
			C601.37,208.62,601.37,194.45,601.37,180.06z"/>
		<path class="st0" d="M387.73,341.66c3.65,0.22,7.09,0.43,10.8,0.66c0,9.28,0,18.59,0,28.04c-3.59,0-7.11,0-10.8,0
			C387.73,360.81,387.73,351.35,387.73,341.66z"/>
		<path class="st0" d="M612.26,370.36c-3.63,0-7.07,0-10.78,0c0-9.28,0-18.59,0-28.03c3.57-0.23,7.1-0.45,10.78-0.68
			C612.26,351.21,612.26,360.75,612.26,370.36z"/>
		<path class="st0" d="M499.84,240.85c-10.75,0-21.5,0.02-32.26,0c-20.52-0.05-35.02-14.47-35.04-34.98
			c-0.01-5.61-0.21-11.37,0.87-16.82c3.16-15.86,16.35-26.6,32.95-26.8c22.42-0.27,44.85-0.31,67.27,0.01
			c18.64,0.26,32.45,13.43,33.62,31.96c0.43,6.89,0.39,14.04-0.97,20.76c-3.06,15.1-16.28,25.53-31.74,25.81
			c-11.57,0.21-23.14,0.04-34.71,0.04C499.84,240.83,499.84,240.84,499.84,240.85z M533.68,184.76
			c-11.62,0.02-20.91,8.47-22.34,20.33c-0.51,4.25,1.31,7.15,4.78,7.6c3.54,0.46,5.87-1.76,6.43-6.13
			c0.82-6.46,5.39-10.74,11.36-10.63c5.99,0.11,10.35,4.47,11.01,11c0.37,3.63,2.69,5.95,5.84,5.84c3.34-0.12,5.43-2.66,5.33-6.52
			C555.81,194.33,545.8,184.74,533.68,184.76z M466.37,184.76c-12.34-0.03-22.67,10.1-22.49,22.04c0.07,4.66,4.39,7.42,8.26,5.25
			c2.2-1.24,2.82-3.29,3-5.68c0.36-4.81,3.43-8.56,7.89-9.91c7.1-2.14,13.38,2.36,14.45,10.35c0.55,4.11,2.91,6.31,6.35,5.89
			c3.38-0.41,5.28-3.24,4.87-7.25C487.47,193.47,478.1,184.79,466.37,184.76z"/>
		<path class="st0" d="M500.31,308.36c3.88,0,7.78-0.21,11.64,0.11c1.5,0.12,3.66,1.11,4.15,2.28c0.56,1.34,0.15,3.75-0.79,4.94
			c-3.6,4.56-7.53,8.88-11.46,13.18c-2.34,2.56-5.39,2.55-7.74-0.02c-3.93-4.3-7.85-8.62-11.46-13.18
			c-0.94-1.19-1.34-3.61-0.77-4.94c0.5-1.17,2.66-2.14,4.16-2.26C492.12,308.16,496.22,308.36,500.31,308.36z"/>
	</g>
</g>
</svg>
