<?xml version="1.0" encoding="utf-8"?>
<!-- Generator: Adobe Illustrator 25.4.1, SVG Export Plug-In . SVG Version: 6.00 Build 0)  -->
<svg version="1.1" id="Layer_1" xmlns="http://www.w3.org/2000/svg" xmlns:xlink="http://www.w3.org/1999/xlink" x="0px" y="0px"
	 viewBox="0 0 1000 1000" style="enable-background:new 0 0 1000 1000;" xml:space="preserve">
<style type="text/css">
	.st0{fill:#FFFFFF;}
</style>
<path class="st0" d="M511.58,103.98c10.27,2.06,20.62,3.83,30.81,6.22c70.03,16.41,129.84,83.23,139.27,154.71
	c6.21,47.05-0.64,91.52-27.21,131.31c-35.3,52.85-84.14,83.62-148.73,87.99c-84.82,5.73-154.58-44.16-186.25-111.88
	c-29.75-63.6-17.72-148.33,28.92-201.05c28.62-32.36,63.1-54.66,105.8-63.35c7.26-1.48,14.59-2.63,21.89-3.93
	C487.91,103.98,499.74,103.98,511.58,103.98z"/>
<path class="st0" d="M498.31,894.48c-62.52,0-125.03-0.02-187.55,0.01c-32.06,0.02-62.34-6.3-88.93-25.31
	c-30.18-21.58-47.99-51.21-51.11-87.83c-5.58-65.38,2.02-129.52,26.59-190.69c14.64-36.44,36.53-67.84,72.52-87.1
	c22.51-12.05,46.62-17.86,71.87-17.38c7.97,0.15,16.4,4.06,23.66,8.01c11.94,6.5,22.98,14.61,34.59,21.74
	c65.95,40.48,131.9,40.39,197.71-0.33c9.18-5.68,18.53-11.19,27.16-17.63c15.79-11.78,33.14-13.49,51.97-10.73
	c51.27,7.52,87.55,35.51,112.01,80.31c21.84,39.99,31.64,83.43,36.05,128.2c2.24,22.73,3.31,45.7,3.04,68.53
	c-0.84,70.46-48.07,121.51-118.2,128.78c-8.42,0.87-16.92,1.35-25.39,1.36C622.31,894.53,560.31,894.48,498.31,894.48z"/>
</svg>
